<svg id="Layer_1" data-name="Layer 1" xmlns="http://www.w3.org/2000/svg" viewBox="0 0 128.73 207.97"><defs><style>.cls-1{fill:#28285b;}</style></defs><title>download</title><rect class="cls-1" x="24.14" y="0.5" width="81" height="126" rx="10.42"/><path d="M161.08,26A9.93,9.93,0,0,1,171,35.92V141.08a9.93,9.93,0,0,1-9.92,9.92H100.92A9.93,9.93,0,0,1,91,141.08V35.92A9.93,9.93,0,0,1,100.92,26h60.16m0-1H100.92A10.92,10.92,0,0,0,90,35.92V141.08A10.92,10.92,0,0,0,100.92,152h60.16A10.92,10.92,0,0,0,172,141.08V35.92A10.92,10.92,0,0,0,161.08,25Z" transform="translate(-66.36 -25)"/><path class="cls-1" d="M130.33,232.47a7.9,7.9,0,0,1-5.42-2.14l-55.52-52a7.93,7.93,0,0,1,5.42-13.73l111.89.87A7.93,7.93,0,0,1,192,179.31l-56.31,51.1a7.89,7.89,0,0,1-5.33,2.06Z" transform="translate(-66.36 -25)"/><path d="M74.81,165.13h.06L186.7,166a7.43,7.43,0,0,1,4.94,12.94L135.33,230a7.45,7.45,0,0,1-10.08-.07L69.73,178a7.44,7.44,0,0,1,5.08-12.86m0-1a8.43,8.43,0,0,0-5.76,14.59l55.52,52a8.44,8.44,0,0,0,11.43.08l56.31-51.1a8.43,8.43,0,0,0-5.6-14.68l-111.83-.87Z" transform="translate(-66.36 -25)"/></svg>